# xmcd
#
# Track frame offsets: 
#        150
#        13776
#        20280
#        37987
#        48806
#        60658
#        75334
#        84550
#        96422
#        111143
#        136743
#        151350
#        163719
#        187889
#        202829
#        218173
#
# Disc length: 3121 seconds
#
# Revision: 0
# Processed by: cddbd v1.5.1PL2 Copyright (c) Steve Scherf et al.
# Submitted via: ExactAudioCopy v0.95a4
#
DISCID=bd0c2f10
DTITLE=Uncle Tupelo - Off Broadway - St. Louis - 8-15-90
DYEAR=1990
DGENRE=Alternative
TTITLE0=Before I Break
TTITLE1=Atomic Power
TTITLE2=Postcard
TTITLE3=Nothing
TTITLE4=True to Life
TTITLE5=Flatness
TTITLE6=There Was a Time
TTITLE7=D. Boon
TTITLE8=Outdone
TTITLE9=Whiskey Bottle
TTITLE10=Watch Me Fall
TTITLE11=Cocaine Blues
TTITLE12=Graveyard Shift
TTITLE13=Faraway Eyes
TTITLE14=Factory Belt
TTITLE15=I Drink Stag w/Brian Henneman
EXTD=
EXTT0=
EXTT1=
EXTT2=
EXTT3=
EXTT4=
EXTT5=
EXTT6=
EXTT7=
EXTT8=
EXTT9=
EXTT10=
EXTT11=
EXTT12=
EXTT13=
EXTT14=
EXTT15=
PLAYORDER=
